HIERARCHY
ROOT Hips
{
	OFFSET -0.001795 -0.223333 0.028219
	CHANNELS 6 Xposition Yposition Zposition Zrotation Yrotation Xrotation 
	JOINT LeftUpLeg
	{
		OFFSET 0.069520 -0.091406 -0.006815
		CHANNELS 3 Zrotation Yrotation Xrotation
		JOINT LeftLeg
		{
			OFFSET 0.034277 -0.375199 -0.004496
			CHANNELS 3 Zrotation Yrotation Xrotation
			JOINT LeftFoot
			{
				OFFSET -0.013596 -0.397961 -0.043693
				CHANNELS 3 Zrotation Yrotation Xrotation
				JOINT LeftToe
				{
					OFFSET 0.026358 -0.055791 0.119288
					CHANNELS 3 Zrotation Yrotation Xrotation
					End Site
					{
						OFFSET 0.000000 0.000000 0.000000
					}
				}
			}
		}
	}
	JOINT RightUpLeg
	{
		OFFSET -0.067670 -0.090522 -0.004320
		CHANNELS 3 Zrotation Yrotation Xrotation
		JOINT RightLeg
		{
			OFFSET -0.038290 -0.382569 -0.008850
			CHANNELS 3 Zrotation Yrotation Xrotation
			JOINT RightFoot
			{
				OFFSET 0.015774 -0.398415 -0.042312
				CHANNELS 3 Zrotation Yrotation Xrotation
				JOINT RightToe
				{
					OFFSET -0.025372 -0.048144 0.123348
					CHANNELS 3 Zrotation Yrotation Xrotation
					End Site
					{
						OFFSET 0.000000 0.000000 0.000000
					}
				}
			}
		}
	}
	JOINT Spine
	{
		OFFSET -0.002533 0.108963 -0.026696
		CHANNELS 3 Zrotation Yrotation Xrotation
		JOINT Spine1
		{
			OFFSET 0.005487 0.135180 0.001092
			CHANNELS 3 Zrotation Yrotation Xrotation
			JOINT Spine2
			{
				OFFSET 0.001457 0.052922 0.025425
				CHANNELS 3 Zrotation Yrotation Xrotation
				JOINT Neck
				{
					OFFSET -0.002778 0.213870 -0.042857
					CHANNELS 3 Zrotation Yrotation Xrotation
					JOINT Head
					{
						OFFSET 0.005152 0.064970 0.051349
						CHANNELS 3 Zrotation Yrotation Xrotation
						End Site
						{
							OFFSET 0.000000 0.000000 0.000000
						}
					}
				}
				JOINT LeftShoulder
				{
					OFFSET 0.078845 0.121749 -0.034090
					CHANNELS 3 Zrotation Yrotation Xrotation
					JOINT LeftArm
					{
						OFFSET 0.090977 0.030469 -0.008868
						CHANNELS 3 Zrotation Yrotation Xrotation
						JOINT LeftForeArm
						{
							OFFSET 0.259612 -0.012772 -0.027456
							CHANNELS 3 Zrotation Yrotation Xrotation
							JOINT LeftHand
							{
								OFFSET 0.249234 0.008986 -0.001171
								CHANNELS 3 Zrotation Yrotation Xrotation
								End Site
								{
									OFFSET 0.000000 0.000000 0.000000
								}
							}
						}
					}
				}
				JOINT RightShoulder
				{
					OFFSET -0.081759 0.118833 -0.038615
					CHANNELS 3 Zrotation Yrotation Xrotation
					JOINT RightArm
					{
						OFFSET -0.096012 0.032551 -0.009143
						CHANNELS 3 Zrotation Yrotation Xrotation
						JOINT RightForeArm
						{
							OFFSET -0.253742 -0.013329 -0.021401
							CHANNELS 3 Zrotation Yrotation Xrotation
							JOINT RightHand
							{
								OFFSET -0.255298 0.007772 -0.005559
								CHANNELS 3 Zrotation Yrotation Xrotation
								End Site
								{
									OFFSET 0.000000 0.000000 0.000000
								}
							}
						}
					}
				}
			}
		}
	}
}
MOTION
Frames: 5
Frame Time: 0.050000
0.018281 0.960702 -0.040453 0.693306 -14.839250 16.138980 2.211465 -0.839050 -13.316613 4.084632 -0.150854 -5.038629 3.321293 8.361677 13.777070 0.000000 0.000000 0.000000 -5.637609 1.986035 -20.821175 -7.165425 0.432863 -1.456392 11.911067 12.236558 17.656814 0.000000 0.000000 0.000000 4.700956 -0.540436 3.336036 3.743176 -1.573966 1.596948 -12.483518 4.073188 3.719240 19.393698 -10.797874 -15.122061 0.000000 0.000000 0.000000 -7.550890 -29.336337 12.298783 -54.481558 -30.008482 7.840433 4.369363 -15.163494 0.010392 0.000000 0.000000 0.000000 7.619748 15.552693 5.947493 60.940213 24.351025 7.064190 -6.458323 17.878429 -0.314557 0.000000 0.000000 0.000000 
0.016502 0.959030 -0.043507 0.788048 -14.907987 17.029099 2.970852 -0.791306 -14.070291 3.735514 -0.136895 -4.867844 3.433970 8.563324 14.174758 0.000000 0.000000 0.000000 -5.369381 2.148461 -22.055660 -8.343438 0.512512 -1.559773 12.485346 13.677916 17.363223 0.000000 0.000000 0.000000 4.819959 -0.692344 5.052863 3.236872 -1.329216 0.952720 -11.270980 2.965710 3.341390 18.857465 -9.467744 -18.609908 0.000000 0.000000 0.000000 -9.200569 -32.201151 14.425885 -60.099379 -35.148778 12.196646 6.027424 -6.344410 -0.071561 0.000000 0.000000 0.000000 6.311278 18.869331 7.127961 67.243615 30.629003 12.049694 -6.991437 10.899970 -0.187687 0.000000 0.000000 0.000000 
0.014379 0.959741 -0.045943 1.043019 -14.983723 17.451756 3.487726 -0.752288 -14.706809 3.307174 -0.097151 -4.965001 3.262862 8.379072 15.286810 0.000000 0.000000 0.000000 -5.007317 2.258414 -22.698932 -9.289522 0.638252 -1.153563 12.092761 12.917845 17.329497 0.000000 0.000000 0.000000 4.108529 -0.693297 6.153698 3.017667 -1.229356 0.460170 -10.164381 1.502943 4.191727 18.293103 -8.906287 -20.069891 0.000000 0.000000 0.000000 -6.117945 -31.087647 13.423767 -64.405613 -35.814371 14.159357 6.635328 -6.943321 -0.117419 0.000000 0.000000 0.000000 4.200920 19.961756 7.221667 69.708699 31.723368 12.975839 -7.767326 11.504944 -0.282700 0.000000 0.000000 0.000000 
0.011792 0.961053 -0.047999 0.786853 -14.800529 18.486594 3.815968 -0.747140 -15.958718 3.418424 -0.129918 -4.581452 2.991996 8.007045 15.662737 0.000000 0.000000 0.000000 -4.357787 2.403402 -23.383457 -9.838214 0.538461 -2.320726 12.334663 12.957969 17.884692 0.000000 0.000000 0.000000 4.303785 -0.749510 6.440978 2.940926 -1.184765 -0.107496 -9.542131 1.346239 4.660478 17.151698 -8.307893 -20.102042 0.000000 0.000000 0.000000 -3.595074 -29.586888 12.141502 -65.836073 -34.718132 14.033506 5.976873 -11.201798 -0.150234 0.000000 0.000000 0.000000 2.850396 19.184250 6.822839 69.950497 31.641024 12.833564 -9.354014 13.153463 -0.507500 0.000000 0.000000 0.000000 
0.009050 0.962534 -0.049715 0.787313 -14.089429 19.151225 3.985602 -0.763173 -16.735495 3.469915 -0.160146 -4.132195 3.046320 8.258271 16.247409 0.000000 0.000000 0.000000 -4.085571 2.459125 -23.831620 -10.104219 0.563921 -2.312342 11.965460 12.134276 18.165369 0.000000 0.000000 0.000000 4.526757 -0.841690 7.261441 2.677515 -1.060394 -1.756601 -9.006667 1.184302 6.407378 16.401746 -8.044770 -20.020213 0.000000 0.000000 0.000000 -1.735212 -27.926909 11.011989 -66.458798 -33.982185 13.738832 6.302135 -13.921677 -0.213526 0.000000 0.000000 0.000000 1.926890 17.145951 6.007651 70.344252 30.690997 12.015103 -10.329321 15.973186 -0.781124 0.000000 0.000000 0.000000 
